<?xml version="1.0" encoding="UTF-8" standalone="no"?><!DOCTYPE svg PUBLIC "-//W3C//DTD SVG 1.1//EN" "http://www.w3.org/Graphics/SVG/1.1/DTD/svg11.dtd"><svg width="100%" height="100%" viewBox="0 0 104 213" version="1.1" xmlns="http://www.w3.org/2000/svg" xmlns:xlink="http://www.w3.org/1999/xlink" xml:space="preserve" xmlns:serif="http://www.serif.com/" style="fill-rule:evenodd;clip-rule:evenodd;stroke-linejoin:round;stroke-miterlimit:2;"><g><path d="M62.64,17.743l10.244,-17.743l20.489,0l10.244,17.743l-10.244,17.744l-20.489,0l-10.244,-17.744Z" style="fill:url(#_Linear1);"/><path d="M62.64,53.23l10.244,-17.743l20.489,0l10.244,17.743l-10.244,17.744l-20.489,0l-10.244,-17.744Z" style="fill:url(#_Linear2);"/><path d="M103.617,88.717l-10.244,17.744l-20.489,0l-10.244,-17.744l10.244,-17.743l20.489,0l10.244,17.743Z" style="fill:url(#_Linear3);"/><path d="M103.617,124.204l-10.244,17.744l-20.489,0l-10.244,-17.744l10.244,-17.743l20.489,0l10.244,17.743Z" style="fill:url(#_Linear4);"/><path d="M103.617,159.691l-10.244,17.744l-20.489,0l-10.244,-17.744l10.244,-17.743l20.489,0l10.244,17.743Z" style="fill:url(#_Linear5);"/><path d="M103.617,195.178l-10.244,17.744l-20.489,0l-10.244,-17.744l10.244,-17.743l20.489,0l10.244,17.743Z" style="fill:url(#_Linear6);"/></g><g><path d="M0,17.743l10.244,-17.743l20.489,0l10.244,17.743l-10.244,17.744l-20.489,0l-10.244,-17.744Z" style="fill:url(#_Linear7);"/><path d="M0,53.23l10.244,-17.743l20.489,0l10.244,17.743l-10.244,17.744l-20.489,0l-10.244,-17.744Z" style="fill:url(#_Linear8);"/><path d="M40.977,88.717l-10.244,17.744l-20.489,0l-10.244,-17.744l10.244,-17.743l20.489,0l10.244,17.743Z" style="fill:url(#_Linear9);"/><path d="M40.977,124.204l-10.244,17.744l-20.489,0l-10.244,-17.744l10.244,-17.743l20.489,0l10.244,17.743Z" style="fill:url(#_Linear10);"/><path d="M40.977,159.691l-10.244,17.744l-20.489,0l-10.244,-17.744l10.244,-17.743l20.489,0l10.244,17.743Z" style="fill:url(#_Linear11);"/><path d="M40.977,195.178l-10.244,17.744l-20.489,0l-10.244,-17.744l10.244,-17.743l20.489,0l10.244,17.743Z" style="fill:url(#_Linear12);"/></g><defs><linearGradient id="_Linear1" x1="0" y1="0" x2="1" y2="0" gradientUnits="userSpaceOnUse" gradientTransform="matrix(5.91201e-14,208.701,-208.701,5.91201e-14,165.368,4.22085)"><stop offset="0" style="stop-color:#ff6400;stop-opacity:1"/><stop offset="0.46" style="stop-color:#ff7500;stop-opacity:1"/><stop offset="1" style="stop-color:#ffa100;stop-opacity:1"/></linearGradient><linearGradient id="_Linear2" x1="0" y1="0" x2="1" y2="0" gradientUnits="userSpaceOnUse" gradientTransform="matrix(5.91201e-14,208.701,-208.701,5.91201e-14,165.368,4.22085)"><stop offset="0" style="stop-color:#ff6400;stop-opacity:1"/><stop offset="0.46" style="stop-color:#ff7500;stop-opacity:1"/><stop offset="1" style="stop-color:#ffa100;stop-opacity:1"/></linearGradient><linearGradient id="_Linear3" x1="0" y1="0" x2="1" y2="0" gradientUnits="userSpaceOnUse" gradientTransform="matrix(5.91201e-14,208.701,-208.701,5.91201e-14,165.368,4.22085)"><stop offset="0" style="stop-color:#ff6400;stop-opacity:1"/><stop offset="0.46" style="stop-color:#ff7500;stop-opacity:1"/><stop offset="1" style="stop-color:#ffa100;stop-opacity:1"/></linearGradient><linearGradient id="_Linear4" x1="0" y1="0" x2="1" y2="0" gradientUnits="userSpaceOnUse" gradientTransform="matrix(5.91201e-14,208.701,-208.701,5.91201e-14,165.368,4.22085)"><stop offset="0" style="stop-color:#ff6400;stop-opacity:1"/><stop offset="0.46" style="stop-color:#ff7500;stop-opacity:1"/><stop offset="1" style="stop-color:#ffa100;stop-opacity:1"/></linearGradient><linearGradient id="_Linear5" x1="0" y1="0" x2="1" y2="0" gradientUnits="userSpaceOnUse" gradientTransform="matrix(5.91201e-14,208.701,-208.701,5.91201e-14,165.368,4.22085)"><stop offset="0" style="stop-color:#ff6400;stop-opacity:1"/><stop offset="0.46" style="stop-color:#ff7500;stop-opacity:1"/><stop offset="1" style="stop-color:#ffa100;stop-opacity:1"/></linearGradient><linearGradient id="_Linear6" x1="0" y1="0" x2="1" y2="0" gradientUnits="userSpaceOnUse" gradientTransform="matrix(5.91201e-14,208.701,-208.701,5.91201e-14,165.368,4.22085)"><stop offset="0" style="stop-color:#ff6400;stop-opacity:1"/><stop offset="0.46" style="stop-color:#ff7500;stop-opacity:1"/><stop offset="1" style="stop-color:#ffa100;stop-opacity:1"/></linearGradient><linearGradient id="_Linear7" x1="0" y1="0" x2="1" y2="0" gradientUnits="userSpaceOnUse" gradientTransform="matrix(5.91201e-14,208.701,-208.701,5.91201e-14,102.728,4.22085)"><stop offset="0" style="stop-color:#ff6400;stop-opacity:1"/><stop offset="0.46" style="stop-color:#ff7500;stop-opacity:1"/><stop offset="1" style="stop-color:#ffa100;stop-opacity:1"/></linearGradient><linearGradient id="_Linear8" x1="0" y1="0" x2="1" y2="0" gradientUnits="userSpaceOnUse" gradientTransform="matrix(5.91201e-14,208.701,-208.701,5.91201e-14,102.728,4.22085)"><stop offset="0" style="stop-color:#ff6400;stop-opacity:1"/><stop offset="0.46" style="stop-color:#ff7500;stop-opacity:1"/><stop offset="1" style="stop-color:#ffa100;stop-opacity:1"/></linearGradient><linearGradient id="_Linear9" x1="0" y1="0" x2="1" y2="0" gradientUnits="userSpaceOnUse" gradientTransform="matrix(5.91201e-14,208.701,-208.701,5.91201e-14,102.728,4.22085)"><stop offset="0" style="stop-color:#ff6400;stop-opacity:1"/><stop offset="0.46" style="stop-color:#ff7500;stop-opacity:1"/><stop offset="1" style="stop-color:#ffa100;stop-opacity:1"/></linearGradient><linearGradient id="_Linear10" x1="0" y1="0" x2="1" y2="0" gradientUnits="userSpaceOnUse" gradientTransform="matrix(5.91201e-14,208.701,-208.701,5.91201e-14,102.728,4.22085)"><stop offset="0" style="stop-color:#ff6400;stop-opacity:1"/><stop offset="0.46" style="stop-color:#ff7500;stop-opacity:1"/><stop offset="1" style="stop-color:#ffa100;stop-opacity:1"/></linearGradient><linearGradient id="_Linear11" x1="0" y1="0" x2="1" y2="0" gradientUnits="userSpaceOnUse" gradientTransform="matrix(5.91201e-14,208.701,-208.701,5.91201e-14,102.728,4.22085)"><stop offset="0" style="stop-color:#ff6400;stop-opacity:1"/><stop offset="0.46" style="stop-color:#ff7500;stop-opacity:1"/><stop offset="1" style="stop-color:#ffa100;stop-opacity:1"/></linearGradient><linearGradient id="_Linear12" x1="0" y1="0" x2="1" y2="0" gradientUnits="userSpaceOnUse" gradientTransform="matrix(5.91201e-14,208.701,-208.701,5.91201e-14,102.728,4.22085)"><stop offset="0" style="stop-color:#ff6400;stop-opacity:1"/><stop offset="0.46" style="stop-color:#ff7500;stop-opacity:1"/><stop offset="1" style="stop-color:#ffa100;stop-opacity:1"/></linearGradient></defs></svg>