<?xml version="1.0" encoding="UTF-8" standalone="no"?><!DOCTYPE svg PUBLIC "-//W3C//DTD SVG 1.1//EN" "http://www.w3.org/Graphics/SVG/1.1/DTD/svg11.dtd"><svg width="100%" height="100%" viewBox="0 0 226 213" version="1.1" xmlns="http://www.w3.org/2000/svg" xmlns:xlink="http://www.w3.org/1999/xlink" xml:space="preserve" xmlns:serif="http://www.serif.com/" style="fill-rule:evenodd;clip-rule:evenodd;stroke-linejoin:round;stroke-miterlimit:2;"><g><g><path d="M225.993,17.743l-10.245,-17.743l-20.488,0l-10.244,17.743l10.244,17.744l20.488,0l10.245,-17.744Z" style="fill:url(#_Linear1);"/><path d="M225.993,53.23l-10.245,-17.743l-20.488,0l-10.244,17.743l10.244,17.744l20.488,0l10.245,-17.744Z" style="fill:url(#_Linear2);"/><path d="M154.186,35.487l10.244,17.743l20.489,0l10.244,-17.743l-10.244,-17.744l-20.489,0l-10.244,17.744Z" style="fill:url(#_Linear3);"/><path d="M185.016,88.717l10.244,17.744l20.488,0l10.245,-17.744l-10.245,-17.743l-20.488,0l-10.244,17.743Z" style="fill:url(#_Linear4);"/><path d="M154.186,70.974l10.244,17.743l20.489,0l10.244,-17.743l-10.244,-17.744l-20.489,0l-10.244,17.744Z" style="fill:url(#_Linear5);"/><path d="M123.264,53.23l10.245,17.744l20.488,0l10.244,-17.744l-10.244,-17.743l-20.488,0l-10.245,17.743Z" style="fill:url(#_Linear6);"/><path d="M185.016,124.204l10.244,17.744l20.488,0l10.245,-17.744l-10.245,-17.743l-20.488,0l-10.244,17.743Z" style="fill:url(#_Linear7);"/><path d="M154.186,106.461l10.244,17.743l20.489,0l10.244,-17.743l-10.244,-17.744l-20.489,0l-10.244,17.744Z" style="fill:url(#_Linear8);"/><path d="M123.264,88.717l10.245,17.744l20.488,0l10.244,-17.744l-10.244,-17.743l-20.488,0l-10.245,17.743Z" style="fill:url(#_Linear9);"/><path d="M92.395,70.974l10.244,17.743l20.489,0l10.244,-17.743l-10.244,-17.744l-20.489,0l-10.244,17.744Z" style="fill:url(#_Linear10);"/><path d="M185.016,159.691l10.244,17.744l20.488,0l10.245,-17.744l-10.245,-17.743l-20.488,0l-10.244,17.743Z" style="fill:url(#_Linear11);"/><path d="M154.186,141.948l10.244,17.743l20.489,0l10.244,-17.743l-10.244,-17.744l-20.489,0l-10.244,17.744Z" style="fill:url(#_Linear12);"/><path d="M123.264,124.204l10.245,17.744l20.488,0l10.244,-17.744l-10.244,-17.743l-20.488,0l-10.245,17.743Z" style="fill:url(#_Linear13);"/><path d="M92.395,106.461l10.244,17.743l20.489,0l10.244,-17.743l-10.244,-17.744l-20.489,0l-10.244,17.744Z" style="fill:url(#_Linear14);"/><path d="M61.526,88.717l10.244,17.744l20.489,0l10.244,-17.744l-10.244,-17.743l-20.489,0l-10.244,17.743Z" style="fill:url(#_Linear15);"/><path d="M154.186,177.435l10.244,17.743l20.489,0l10.244,-17.743l-10.244,-17.744l-20.489,0l-10.244,17.744Z" style="fill:url(#_Linear16);"/><path d="M123.264,159.691l10.245,17.744l20.488,0l10.244,-17.744l-10.244,-17.743l-20.488,0l-10.245,17.743Z" style="fill:url(#_Linear17);"/><path d="M92.395,141.948l10.244,17.743l20.489,0l10.244,-17.743l-10.244,-17.744l-20.489,0l-10.244,17.744Z" style="fill:url(#_Linear18);"/><path d="M61.526,124.204l10.244,17.744l20.489,0l10.244,-17.744l-10.244,-17.743l-20.489,0l-10.244,17.743Z" style="fill:url(#_Linear19);"/><path d="M30.657,106.461l10.244,17.743l20.488,0l10.245,-17.743l-10.245,-17.744l-20.488,0l-10.244,17.744Z" style="fill:url(#_Linear20);"/><path d="M185.016,195.178l10.244,17.744l20.488,0l10.245,-17.744l-10.245,-17.743l-20.488,0l-10.244,17.743Z" style="fill:url(#_Linear21);"/></g><g><path d="M40.977,17.743l-10.244,-17.743l-20.489,0l-10.244,17.743l10.244,17.744l20.489,0l10.244,-17.744Z" style="fill:url(#_Linear22);"/><path d="M40.977,53.23l-10.244,-17.743l-20.489,0l-10.244,17.743l10.244,17.744l20.489,0l10.244,-17.744Z" style="fill:url(#_Linear23);"/><path d="M0,88.717l10.244,17.744l20.489,0l10.244,-17.744l-10.244,-17.743l-20.489,0l-10.244,17.743Z" style="fill:url(#_Linear24);"/><path d="M0,124.204l10.244,17.744l20.489,0l10.244,-17.744l-10.244,-17.743l-20.489,0l-10.244,17.743Z" style="fill:url(#_Linear25);"/><path d="M0,159.691l10.244,17.744l20.489,0l10.244,-17.744l-10.244,-17.743l-20.489,0l-10.244,17.743Z" style="fill:url(#_Linear26);"/><path d="M0,195.178l10.244,17.744l20.489,0l10.244,-17.744l-10.244,-17.743l-20.489,0l-10.244,17.743Z" style="fill:url(#_Linear27);"/></g></g><defs><linearGradient id="_Linear1" x1="0" y1="0" x2="1" y2="0" gradientUnits="userSpaceOnUse" gradientTransform="matrix(-5.91201e-14,208.701,208.701,5.91201e-14,123.264,4.22085)"><stop offset="0" style="stop-color:#ff6400;stop-opacity:1"/><stop offset="0.46" style="stop-color:#ff7500;stop-opacity:1"/><stop offset="1" style="stop-color:#ffa100;stop-opacity:1"/></linearGradient><linearGradient id="_Linear2" x1="0" y1="0" x2="1" y2="0" gradientUnits="userSpaceOnUse" gradientTransform="matrix(-5.91201e-14,208.701,208.701,5.91201e-14,123.264,4.22085)"><stop offset="0" style="stop-color:#ff6400;stop-opacity:1"/><stop offset="0.46" style="stop-color:#ff7500;stop-opacity:1"/><stop offset="1" style="stop-color:#ffa100;stop-opacity:1"/></linearGradient><linearGradient id="_Linear3" x1="0" y1="0" x2="1" y2="0" gradientUnits="userSpaceOnUse" gradientTransform="matrix(-5.91201e-14,208.701,208.701,5.91201e-14,123.264,4.22085)"><stop offset="0" style="stop-color:#ff6400;stop-opacity:1"/><stop offset="0.46" style="stop-color:#ff7500;stop-opacity:1"/><stop offset="1" style="stop-color:#ffa100;stop-opacity:1"/></linearGradient><linearGradient id="_Linear4" x1="0" y1="0" x2="1" y2="0" gradientUnits="userSpaceOnUse" gradientTransform="matrix(-5.91201e-14,208.701,208.701,5.91201e-14,123.264,4.22085)"><stop offset="0" style="stop-color:#ff6400;stop-opacity:1"/><stop offset="0.46" style="stop-color:#ff7500;stop-opacity:1"/><stop offset="1" style="stop-color:#ffa100;stop-opacity:1"/></linearGradient><linearGradient id="_Linear5" x1="0" y1="0" x2="1" y2="0" gradientUnits="userSpaceOnUse" gradientTransform="matrix(-5.91201e-14,208.701,208.701,5.91201e-14,123.264,4.22085)"><stop offset="0" style="stop-color:#ff6400;stop-opacity:1"/><stop offset="0.46" style="stop-color:#ff7500;stop-opacity:1"/><stop offset="1" style="stop-color:#ffa100;stop-opacity:1"/></linearGradient><linearGradient id="_Linear6" x1="0" y1="0" x2="1" y2="0" gradientUnits="userSpaceOnUse" gradientTransform="matrix(-5.91201e-14,208.701,208.701,5.91201e-14,123.264,4.22085)"><stop offset="0" style="stop-color:#ff6400;stop-opacity:1"/><stop offset="0.46" style="stop-color:#ff7500;stop-opacity:1"/><stop offset="1" style="stop-color:#ffa100;stop-opacity:1"/></linearGradient><linearGradient id="_Linear7" x1="0" y1="0" x2="1" y2="0" gradientUnits="userSpaceOnUse" gradientTransform="matrix(-5.91201e-14,208.701,208.701,5.91201e-14,123.264,4.22085)"><stop offset="0" style="stop-color:#ff6400;stop-opacity:1"/><stop offset="0.46" style="stop-color:#ff7500;stop-opacity:1"/><stop offset="1" style="stop-color:#ffa100;stop-opacity:1"/></linearGradient><linearGradient id="_Linear8" x1="0" y1="0" x2="1" y2="0" gradientUnits="userSpaceOnUse" gradientTransform="matrix(-5.91201e-14,208.701,208.701,5.91201e-14,123.264,4.22085)"><stop offset="0" style="stop-color:#ff6400;stop-opacity:1"/><stop offset="0.46" style="stop-color:#ff7500;stop-opacity:1"/><stop offset="1" style="stop-color:#ffa100;stop-opacity:1"/></linearGradient><linearGradient id="_Linear9" x1="0" y1="0" x2="1" y2="0" gradientUnits="userSpaceOnUse" gradientTransform="matrix(-5.91201e-14,208.701,208.701,5.91201e-14,123.264,4.22085)"><stop offset="0" style="stop-color:#ff6400;stop-opacity:1"/><stop offset="0.46" style="stop-color:#ff7500;stop-opacity:1"/><stop offset="1" style="stop-color:#ffa100;stop-opacity:1"/></linearGradient><linearGradient id="_Linear10" x1="0" y1="0" x2="1" y2="0" gradientUnits="userSpaceOnUse" gradientTransform="matrix(-5.91201e-14,208.701,208.701,5.91201e-14,123.264,4.22085)"><stop offset="0" style="stop-color:#ff6400;stop-opacity:1"/><stop offset="0.46" style="stop-color:#ff7500;stop-opacity:1"/><stop offset="1" style="stop-color:#ffa100;stop-opacity:1"/></linearGradient><linearGradient id="_Linear11" x1="0" y1="0" x2="1" y2="0" gradientUnits="userSpaceOnUse" gradientTransform="matrix(-5.91201e-14,208.701,208.701,5.91201e-14,123.264,4.22085)"><stop offset="0" style="stop-color:#ff6400;stop-opacity:1"/><stop offset="0.46" style="stop-color:#ff7500;stop-opacity:1"/><stop offset="1" style="stop-color:#ffa100;stop-opacity:1"/></linearGradient><linearGradient id="_Linear12" x1="0" y1="0" x2="1" y2="0" gradientUnits="userSpaceOnUse" gradientTransform="matrix(-5.91201e-14,208.701,208.701,5.91201e-14,123.264,4.22085)"><stop offset="0" style="stop-color:#ff6400;stop-opacity:1"/><stop offset="0.46" style="stop-color:#ff7500;stop-opacity:1"/><stop offset="1" style="stop-color:#ffa100;stop-opacity:1"/></linearGradient><linearGradient id="_Linear13" x1="0" y1="0" x2="1" y2="0" gradientUnits="userSpaceOnUse" gradientTransform="matrix(-5.91201e-14,208.701,208.701,5.91201e-14,123.264,4.22085)"><stop offset="0" style="stop-color:#ff6400;stop-opacity:1"/><stop offset="0.46" style="stop-color:#ff7500;stop-opacity:1"/><stop offset="1" style="stop-color:#ffa100;stop-opacity:1"/></linearGradient><linearGradient id="_Linear14" x1="0" y1="0" x2="1" y2="0" gradientUnits="userSpaceOnUse" gradientTransform="matrix(-5.91201e-14,208.701,208.701,5.91201e-14,123.264,4.22085)"><stop offset="0" style="stop-color:#ff6400;stop-opacity:1"/><stop offset="0.46" style="stop-color:#ff7500;stop-opacity:1"/><stop offset="1" style="stop-color:#ffa100;stop-opacity:1"/></linearGradient><linearGradient id="_Linear15" x1="0" y1="0" x2="1" y2="0" gradientUnits="userSpaceOnUse" gradientTransform="matrix(-5.91201e-14,208.701,208.701,5.91201e-14,123.264,4.22085)"><stop offset="0" style="stop-color:#ff6400;stop-opacity:1"/><stop offset="0.46" style="stop-color:#ff7500;stop-opacity:1"/><stop offset="1" style="stop-color:#ffa100;stop-opacity:1"/></linearGradient><linearGradient id="_Linear16" x1="0" y1="0" x2="1" y2="0" gradientUnits="userSpaceOnUse" gradientTransform="matrix(-5.91201e-14,208.701,208.701,5.91201e-14,123.264,4.22085)"><stop offset="0" style="stop-color:#ff6400;stop-opacity:1"/><stop offset="0.46" style="stop-color:#ff7500;stop-opacity:1"/><stop offset="1" style="stop-color:#ffa100;stop-opacity:1"/></linearGradient><linearGradient id="_Linear17" x1="0" y1="0" x2="1" y2="0" gradientUnits="userSpaceOnUse" gradientTransform="matrix(-5.91201e-14,208.701,208.701,5.91201e-14,123.264,4.22085)"><stop offset="0" style="stop-color:#ff6400;stop-opacity:1"/><stop offset="0.46" style="stop-color:#ff7500;stop-opacity:1"/><stop offset="1" style="stop-color:#ffa100;stop-opacity:1"/></linearGradient><linearGradient id="_Linear18" x1="0" y1="0" x2="1" y2="0" gradientUnits="userSpaceOnUse" gradientTransform="matrix(-5.91201e-14,208.701,208.701,5.91201e-14,123.264,4.22085)"><stop offset="0" style="stop-color:#ff6400;stop-opacity:1"/><stop offset="0.46" style="stop-color:#ff7500;stop-opacity:1"/><stop offset="1" style="stop-color:#ffa100;stop-opacity:1"/></linearGradient><linearGradient id="_Linear19" x1="0" y1="0" x2="1" y2="0" gradientUnits="userSpaceOnUse" gradientTransform="matrix(-5.91201e-14,208.701,208.701,5.91201e-14,123.264,4.22085)"><stop offset="0" style="stop-color:#ff6400;stop-opacity:1"/><stop offset="0.46" style="stop-color:#ff7500;stop-opacity:1"/><stop offset="1" style="stop-color:#ffa100;stop-opacity:1"/></linearGradient><linearGradient id="_Linear20" x1="0" y1="0" x2="1" y2="0" gradientUnits="userSpaceOnUse" gradientTransform="matrix(-5.91201e-14,208.701,208.701,5.91201e-14,123.264,4.22085)"><stop offset="0" style="stop-color:#ff6400;stop-opacity:1"/><stop offset="0.46" style="stop-color:#ff7500;stop-opacity:1"/><stop offset="1" style="stop-color:#ffa100;stop-opacity:1"/></linearGradient><linearGradient id="_Linear21" x1="0" y1="0" x2="1" y2="0" gradientUnits="userSpaceOnUse" gradientTransform="matrix(-5.91201e-14,208.701,208.701,5.91201e-14,123.264,4.22085)"><stop offset="0" style="stop-color:#ff6400;stop-opacity:1"/><stop offset="0.46" style="stop-color:#ff7500;stop-opacity:1"/><stop offset="1" style="stop-color:#ffa100;stop-opacity:1"/></linearGradient><linearGradient id="_Linear22" x1="0" y1="0" x2="1" y2="0" gradientUnits="userSpaceOnUse" gradientTransform="matrix(-5.91201e-14,208.701,208.701,5.91201e-14,-61.7515,4.22085)"><stop offset="0" style="stop-color:#ff6400;stop-opacity:1"/><stop offset="0.46" style="stop-color:#ff7500;stop-opacity:1"/><stop offset="1" style="stop-color:#ffa100;stop-opacity:1"/></linearGradient><linearGradient id="_Linear23" x1="0" y1="0" x2="1" y2="0" gradientUnits="userSpaceOnUse" gradientTransform="matrix(-5.91201e-14,208.701,208.701,5.91201e-14,-61.7515,4.22085)"><stop offset="0" style="stop-color:#ff6400;stop-opacity:1"/><stop offset="0.46" style="stop-color:#ff7500;stop-opacity:1"/><stop offset="1" style="stop-color:#ffa100;stop-opacity:1"/></linearGradient><linearGradient id="_Linear24" x1="0" y1="0" x2="1" y2="0" gradientUnits="userSpaceOnUse" gradientTransform="matrix(-5.91201e-14,208.701,208.701,5.91201e-14,-61.7515,4.22085)"><stop offset="0" style="stop-color:#ff6400;stop-opacity:1"/><stop offset="0.46" style="stop-color:#ff7500;stop-opacity:1"/><stop offset="1" style="stop-color:#ffa100;stop-opacity:1"/></linearGradient><linearGradient id="_Linear25" x1="0" y1="0" x2="1" y2="0" gradientUnits="userSpaceOnUse" gradientTransform="matrix(-5.91201e-14,208.701,208.701,5.91201e-14,-61.7515,4.22085)"><stop offset="0" style="stop-color:#ff6400;stop-opacity:1"/><stop offset="0.46" style="stop-color:#ff7500;stop-opacity:1"/><stop offset="1" style="stop-color:#ffa100;stop-opacity:1"/></linearGradient><linearGradient id="_Linear26" x1="0" y1="0" x2="1" y2="0" gradientUnits="userSpaceOnUse" gradientTransform="matrix(-5.91201e-14,208.701,208.701,5.91201e-14,-61.7515,4.22085)"><stop offset="0" style="stop-color:#ff6400;stop-opacity:1"/><stop offset="0.46" style="stop-color:#ff7500;stop-opacity:1"/><stop offset="1" style="stop-color:#ffa100;stop-opacity:1"/></linearGradient><linearGradient id="_Linear27" x1="0" y1="0" x2="1" y2="0" gradientUnits="userSpaceOnUse" gradientTransform="matrix(-5.91201e-14,208.701,208.701,5.91201e-14,-61.7515,4.22085)"><stop offset="0" style="stop-color:#ff6400;stop-opacity:1"/><stop offset="0.46" style="stop-color:#ff7500;stop-opacity:1"/><stop offset="1" style="stop-color:#ffa100;stop-opacity:1"/></linearGradient></defs></svg>