<?xml version="1.0" encoding="UTF-8" standalone="no"?><!DOCTYPE svg PUBLIC "-//W3C//DTD SVG 1.1//EN" "http://www.w3.org/Graphics/SVG/1.1/DTD/svg11.dtd"><svg width="100%" height="100%" viewBox="0 0 281 324" version="1.1" xmlns="http://www.w3.org/2000/svg" xmlns:xlink="http://www.w3.org/1999/xlink" xml:space="preserve" xmlns:serif="http://www.serif.com/" style="fill-rule:evenodd;clip-rule:evenodd;stroke-linejoin:round;stroke-miterlimit:2;"><g><path d="M140.296,0l140.296,81l0,162l-140.296,81l-140.296,-81l0,-162l140.296,-81Zm10.832,215.23l10.244,-17.743l20.488,0l10.245,17.743l-10.245,17.744l10.245,17.743l-10.245,17.744l-20.488,0l-10.244,-17.744l10.244,-17.743l-10.244,-17.744Zm-62.64,0l10.244,-17.743l20.488,0l10.245,17.743l-10.245,17.744l10.245,17.743l-10.245,17.744l-20.488,0l-10.244,-17.744l10.244,-17.743l-10.244,-17.744Zm93.372,-88.717l-20.488,0l-10.244,17.744l10.244,17.743l-10.244,17.743l10.244,17.744l20.488,0l10.245,-17.744l-10.245,-17.743l10.245,-17.743l-10.245,-17.744Zm-62.64,70.974l10.245,-17.744l-10.245,-17.743l10.245,-17.743l-10.245,-17.744l-20.488,0l-10.244,17.744l10.244,17.743l-10.244,17.743l10.244,17.744l20.488,0Zm62.64,-141.948l-20.488,0l-10.244,17.744l10.244,17.743l-10.244,17.744l10.244,17.743l20.488,0l10.245,-17.743l-10.245,-17.744l10.245,-17.743l-10.245,-17.744Zm-62.64,70.974l10.245,-17.743l-10.245,-17.744l10.245,-17.743l-10.245,-17.744l-20.488,0l-10.244,17.744l10.244,17.743l-10.244,17.744l10.244,17.743l20.488,0Z" style="fill:#ff8401;"/></g></svg>