<?xml version="1.0" encoding="UTF-8" standalone="no"?><!DOCTYPE svg PUBLIC "-//W3C//DTD SVG 1.1//EN" "http://www.w3.org/Graphics/SVG/1.1/DTD/svg11.dtd"><svg width="100%" height="100%" viewBox="0 0 281 324" version="1.1" xmlns="http://www.w3.org/2000/svg" xmlns:xlink="http://www.w3.org/1999/xlink" xml:space="preserve" xmlns:serif="http://www.serif.com/" style="fill-rule:evenodd;clip-rule:evenodd;stroke-linejoin:round;stroke-miterlimit:2;"><path d="M140.296,0l140.296,81l0,162l-140.296,81l-140.296,-81l0,-162l140.296,-81Zm-44.867,267.261l10.244,-17.744l-10.244,-17.743l-20.489,0l-10.244,17.743l10.244,17.744l20.489,0Zm30.829,-17.984l10.245,-17.743l-10.245,-17.744l-20.488,0l-10.244,17.744l10.244,17.743l20.488,0Zm30.922,-17.743l10.244,-17.744l-10.244,-17.743l-20.488,0l-10.244,17.743l10.244,17.744l20.488,0Zm-61.751,0l10.244,-17.744l-10.244,-17.743l10.244,-17.744l-10.244,-17.743l-20.489,0l-10.244,17.743l10.244,17.744l-10.244,17.743l10.244,17.744l20.489,0Zm30.829,-17.744l10.245,-17.743l-10.245,-17.744l-20.488,0l-10.244,17.744l10.244,17.743l20.488,0Zm61.791,0l10.245,-17.743l-10.245,-17.744l10.245,-17.743l-10.245,-17.743l-20.488,0l-10.244,17.743l10.244,17.743l-10.244,17.744l10.244,17.743l20.488,0Zm-30.869,-17.743l10.244,-17.744l-10.244,-17.743l-20.488,0l-10.244,17.743l10.244,17.744l20.488,0Zm61.739,0l10.244,-17.744l-10.244,-17.743l-20.489,0l-10.244,17.743l10.244,17.744l20.489,0Zm30.869,-17.744l10.244,-17.743l-10.244,-17.743l-20.489,0l-10.244,17.743l10.244,17.743l20.489,0Zm-123.53,0l10.245,-17.743l-10.245,-17.743l-20.488,0l-10.244,17.743l10.244,17.743l20.488,0Zm102.905,-35.486l-10.244,17.743l-20.489,0l-10.244,-17.743l10.244,-17.744l20.489,0l10.244,17.744Zm-61.739,0l-10.244,17.743l-20.488,0l-10.244,-17.743l10.244,-17.744l20.488,0l10.244,17.744Zm-71.995,17.743l10.244,-17.743l-10.244,-17.744l10.244,-17.743l-10.244,-17.744l-20.489,0l-10.244,17.744l10.244,17.743l-10.244,17.744l10.244,17.743l20.489,0Zm92.62,-17.743l10.245,-17.744l-10.245,-17.743l-20.488,0l-10.244,17.743l10.244,17.744l20.488,0Zm-51.546,-17.744l-10.245,17.744l-20.488,0l-10.244,-17.744l10.244,-17.743l20.488,0l10.245,17.743Zm30.921,-17.743l-10.244,17.743l-20.488,0l-10.244,-17.743l10.244,-17.744l20.488,0l10.244,17.744Zm-41.166,0l10.245,-17.744l-10.245,-17.743l-20.488,0l-10.244,17.743l10.244,17.744l20.488,0Zm-61.562,-35.487l10.244,-17.744l20.489,0l10.244,17.744l-10.244,17.743l-20.489,0l-10.244,-17.743Z" style="fill:#ff8401;"/></svg>